#!OML:ASF F:\VICON\USERDATA\INSTALL\Justin_Nancy\Justin_Nancy.ASF
:FULLY-SPECIFIED
:DEGREES
190
root 0.980052 17.3388 -0.901335 -0.604859 -1.42146 -4.58936
lowerback 4.94615 1.03495 3.31344
upperback -0.00421274 1.65427 2.96435
thorax -2.77376 0.797965 1.07574
lowerneck -16.3765 -3.08501 -9.9462
upperneck 23.3835 -2.37971 3.13601
head 10.3737 -1.60944 2.4541
rclavicle -7.50412e-015 -1.31198e-014
rhumerus -23.1507 -5.65104 -80.8002
rradius 39.7144
rwrist 1.29758
rhand -18.8496 14.1339
rfingers 7.12502
rthumb 7.45036 -15.7149
lclavicle -7.50412e-015 -1.31198e-014
lhumerus -36.8489 22.2421 78.5092
lradius 19.1438
lwrist -17.1458
lhand -12.9469 26.0825
lfingers 7.12502
lthumb 13.1443 55.6482
rfemur 2.64622 6.73868 31.6105
rtibia 21.5834
rfoot -16.2703 -9.99978
rtoes 0.0938978
lfemur -28.6452 -5.55159 -13.1992
ltibia 22.4111
lfoot -6.48443 2.79808
ltoes -8.22505
191
root 0.986068 17.3291 -0.792994 -0.699626 -1.21886 -4.77058
lowerback 5.04859 0.97465 3.41854
upperback 0.110643 1.583 3.05494
thorax -2.7129 0.762887 1.11468
lowerneck -16.6744 -3.10991 -9.97499
upperneck 23.4238 -2.37062 3.12993
head 10.4454 -1.60738 2.45665
rclavicle -5.35476e-015 -2.0276e-014
rhumerus -23.0201 -5.69347 -80.7997
rradius 40.1302
rwrist 1.10705
rhand -18.9139 14.0645
rfingers 7.12502
rthumb 7.3883 -15.7865
lclavicle -5.35476e-015 -2.0276e-014
lhumerus -36.7449 22.3758 78.6285
lradius 19.1198
lwrist -17.1347
lhand -13.0886 25.9605
lfingers 7.12502
lthumb 13.0078 55.535
rfemur 3.32716 6.76985 31.9047
rtibia 21.268
rfoot -16.2612 -10.4113
rtoes -0.00200617
lfemur -28.599 -5.08846 -13.3417
ltibia 22.9277
lfoot -5.09498 2.27988
ltoes -6.94297
192
root 0.991099 17.3221 -0.685154 -0.699572 -1.11635 -4.69299
lowerback 5.03309 0.995496 3.28201
upperback 0.13646 1.6 3.02211
thorax -2.68011 0.773458 1.15631
lowerneck -16.5479 -3.08288 -9.90291
upperneck 23.2348 -2.37901 3.17788
head 10.3514 -1.59541 2.45948
rclavicle 4.00054e-015 1.27222e-014
rhumerus -23.0016 -5.99365 -80.8076
rradius 40.3087
rwrist 1.03845
rhand -18.6021 13.9819
rfingers 7.12502
rthumb 7.68926 -15.8583
lclavicle 4.00054e-015 1.27222e-014
lhumerus -36.6194 22.3285 78.6961
lradius 19.0058
lwrist -17.1969
lhand -12.7747 27.026
lfingers 7.12502
lthumb 13.3104 56.5809
rfemur 3.88262 6.79254 31.8823
rtibia 21.0371
rfoot -16.4078 -10.6521
rtoes -0.158816
lfemur -28.534 -5.04119 -13.5956
ltibia 23.4191
lfoot -4.05589 2.49453
ltoes -5.90942
193
root 1.0028 17.3069 -0.571778 -0.697284 -1.15748 -4.61497
lowerback 5.09042 1.09545 3.21796
upperback 0.105069 1.7316 2.93474
thorax -2.74335 0.838467 1.09108
lowerneck -16.5126 -3.14209 -9.69792
upperneck 23.2498 -2.51806 3.15495
head 10.3558 -1.64429 2.39815
rclavicle -2.09221e-014 1.23246e-014
rhumerus -23.3785 -6.43371 -80.8085
rradius 40.7733
rwrist 1.09234
rhand -18.4035 13.8701
rfingers 7.12502
rthumb 7.88094 -15.963
lclavicle -2.09221e-014 1.23246e-014
lhumerus -36.5541 22.1804 78.7396
lradius 19.0131
lwrist -17.2263
lhand -12.3237 28.1393
lfingers 7.12502
lthumb 13.7451 57.6653
rfemur 4.3747 6.76448 31.8025
rtibia 20.9284
rfoot -16.6066 -10.7183
rtoes -0.105501
lfemur -28.3608 -5.30541 -13.731
ltibia 23.8252
lfoot -3.51537 3.16111
ltoes -5.34455
194
root 1.01171 17.2883 -0.454951 -0.878112 -1.38537 -4.60938
lowerback 5.23399 1.22668 3.18341
upperback 0.14959 1.90878 2.89046
thorax -2.77686 0.92666 1.04906
lowerneck -16.5195 -3.24232 -9.70221
upperneck 23.3957 -2.68889 3.27181
head 10.4237 -1.71233 2.41843
rclavicle -6.53505e-015 -3.97569e-016
rhumerus -23.7335 -6.68639 -80.849
rradius 41.2335
rwrist 0.919415
rhand -18.6569 14.2212
rfingers 7.12502
rthumb 7.6363 -15.621
lclavicle -6.53505e-015 -3.97569e-016
lhumerus -36.6217 21.7688 78.9115
lradius 19.2776
lwrist -16.8888
lhand -12.3651 28.1217
lfingers 7.12502
lthumb 13.7052 57.6504
rfemur 4.99999 7.11707 31.9411
rtibia 20.9705
rfoot -16.5539 -11.219
rtoes -1.00377
lfemur -27.8431 -5.51443 -13.7526
ltibia 24.1277
lfoot -3.2838 3.74444
ltoes -5.12202
195
root 1.02219 17.2707 -0.328979 -1.11069 -1.77623 -4.57426
lowerback 5.26707 1.35752 3.12847
upperback 0.221796 2.07741 2.86165
thorax -2.72099 1.01204 1.03757
lowerneck -16.1181 -3.22396 -9.68739
upperneck 23.1246 -2.72383 3.32528
head 10.2511 -1.71816 2.4302
rclavicle -3.34704e-014 -1.11319e-014
rhumerus -24.0144 -6.77876 -80.9151
rradius 41.4358
rwrist 0.759577
rhand -18.8948 14.592
rfingers 7.12502
rthumb 7.40666 -15.2584
lclavicle -3.34704e-014 -1.11319e-014
lhumerus -36.7219 21.7777 78.8167
lradius 19.1678
lwrist -16.8354
lhand -12.6127 27.6402
lfingers 7.12502
lthumb 13.4665 57.1849
rfemur 5.69818 7.38808 32.0262
rtibia 21.0746
rfoot -16.6006 -11.5714
rtoes -2.52336
lfemur -27.1047 -5.58666 -13.803
ltibia 24.3864
lfoot -3.36448 4.11598
ltoes -4.16898
196
root 1.03949 17.2584 -0.195585 -1.17805 -2.15332 -4.28024
lowerback 5.02503 1.5436 2.89065
upperback 0.311722 2.29203 2.74133
thorax -2.49577 1.1239 1.0387
lowerneck -15.7714 -3.25398 -9.61221
upperneck 22.7647 -2.83392 3.37271
head 10.062 -1.75206 2.4183
rclavicle -2.69602e-015 -2.70347e-014
rhumerus -24.3764 -6.92168 -80.9217
rradius 41.7079
rwrist 0.590259
rhand -19.2656 14.6177
rfingers 7.12502
rthumb 7.04876 -15.2449
lclavicle -2.69602e-015 -2.70347e-014
lhumerus -36.495 22.0619 78.6751
lradius 18.8011
lwrist -17.1502
lhand -12.6043 28.153
lfingers 7.12502
lthumb 13.4746 57.6971
rfemur 6.27388 7.46147 31.6892
rtibia 21.1649
rfoot -16.9169 -11.4838
rtoes -2.34801
lfemur -26.5063 -5.48478 -14.2175
ltibia 24.6033
lfoot -3.39836 4.3098
ltoes -3.59636
197
root 1.05701 17.2534 -0.0676879 -1.1079 -2.48735 -4.16922
lowerback 4.79675 1.69296 2.83777
upperback 0.280003 2.47608 2.65504
thorax -2.39846 1.21664 0.973288
lowerneck -15.6303 -3.27494 -9.66737
upperneck 22.8326 -2.92023 3.59044
head 10.069 -1.77414 2.49518
rclavicle -7.23079e-015 1.63003e-014
rhumerus -24.7753 -7.19871 -80.9452
rradius 41.7807
rwrist 0.58372
rhand -19.5963 14.963
rfingers 7.12502
rthumb 6.72954 -14.9101
lclavicle -7.23079e-015 1.63003e-014
lhumerus -36.5121 22.1729 78.5469
lradius 18.8147
lwrist -17.2117
lhand -12.6042 28.3138
lfingers 7.12502
lthumb 13.4747 57.8579
rfemur 6.70662 7.49481 31.5318
rtibia 21.2075
rfoot -17.0607 -11.4226
rtoes -2.38936
lfemur -26.1403 -5.34413 -14.4168
ltibia 24.7707
lfoot -2.66816 4.19186
ltoes -3.70956
198
root 1.07205 17.2527 0.0538687 -0.960519 -2.77978 -4.13361
lowerback 4.57233 1.78586 2.79393
upperback 0.220765 2.58883 2.63712
thorax -2.33449 1.27371 0.978299
lowerneck -15.6383 -3.26874 -9.73993
upperneck 23.0087 -2.9358 3.75629
head 10.1381 -1.77198 2.56634
rclavicle -2.98798e-014 -3.22031e-014
rhumerus -24.8633 -7.32705 -80.9699
rradius 41.4985
rwrist 0.604193
rhand -19.7707 15.0619
rfingers 7.12502
rthumb 6.56114 -14.8164
lclavicle -2.98798e-014 -3.22031e-014
lhumerus -36.6845 21.5345 78.8983
lradius 19.2746
lwrist -16.4381
lhand -12.7327 28.4271
lfingers 7.12502
lthumb 13.3508 57.9794
rfemur 7.00054 7.49986 31.4845
rtibia 21.2337
rfoot -16.9922 -11.5038
rtoes -3.54011
lfemur -26.0373 -4.95886 -14.5581
ltibia 24.8732
lfoot -0.733366 3.53422
ltoes -1.01842
199
root 1.09201 17.2605 0.187444 -0.801152 -3.13016 -3.91922
lowerback 4.20007 1.92081 2.64944
upperback 0.259383 2.74141 2.579
thorax -2.08954 1.35359 1.00364
lowerneck -15.9829 -3.35133 -9.74965
upperneck 23.2141 -2.99866 3.69639
head 10.2828 -1.80966 2.53758
rclavicle 3.21658e-014 3.18055e-014
rhumerus -24.8063 -7.489 -80.9236
rradius 41.2321
rwrist 0.564246
rhand -19.7272 15.052
rfingers 7.12502
rthumb 6.60315 -14.825
lclavicle 3.21658e-014 3.18055e-014
lhumerus -36.6914 21.1676 79.2036
lradius 19.6293
lwrist -16.0195
lhand -12.8844 27.786
lfingers 7.12502
lthumb 13.2047 57.3478
rfemur 7.30709 7.43719 31.1679
rtibia 21.3003
rfoot -16.6917 -11.5497
rtoes -4.80421
lfemur -25.9558 -4.55191 -14.918
ltibia 24.8973
lfoot 1.6873 2.87927
ltoes 3.90804
200
root 1.1111 17.2743 0.331987 -0.683342 -3.57965 -3.51444
lowerback 3.77107 2.09234 2.32911
upperback 0.263714 2.934 2.42333
thorax -1.85228 1.45413 1.02814
lowerneck -16.1722 -3.30931 -9.68819
upperneck 23.4752 -2.94175 3.70862
head 10.4081 -1.78001 2.54149
rclavicle -1.3418e-014 7.95139e-015
rhumerus -25.1063 -7.67773 -80.9525
rradius 41.1737
rwrist 0.636728
rhand -19.5699 14.9284
rfingers 7.12502
rthumb 6.755 -14.9439
lclavicle -1.3418e-014 7.95139e-015
lhumerus -36.6453 21.5614 78.991
lradius 19.544
lwrist -16.3536
lhand -13.1341 26.9661
lfingers 7.12502
lthumb 12.9639 56.5433
rfemur 7.57077 7.51187 30.6156
rtibia 21.5474
rfoot -16.2075 -11.5853
rtoes -4.24273
lfemur -25.7627 -3.98954 -15.5503
ltibia 24.8241
lfoot 3.68776 2.3234
ltoes 6.15413
201
root 1.12719 17.2892 0.467103 -0.601212 -3.81206 -2.84288
lowerback 3.55141 2.179 1.70748
upperback 0.0774709 3.01695 2.15215
thorax -1.93791 1.49926 1.09656
lowerneck -16.119 -3.19208 -9.59911
upperneck 23.8866 -2.8423 3.82319
head 10.5391 -1.72139 2.58775
rclavicle -2.97432e-014 -4.37326e-015
rhumerus -25.6777 -8.01052 -81.0482
rradius 40.8417
rwrist 1.071
rhand -19.6253 14.7733
rfingers 7.12502
rthumb 6.70157 -15.1007
lclavicle -2.97432e-014 -4.37326e-015
lhumerus -36.7696 21.5884 78.7131
lradius 19.363
lwrist -16.1924
lhand -13.5943 26.5176
lfingers 7.12502
lthumb 12.5203 56.1225
rfemur 7.68611 7.56964 29.8283
rtibia 22.0462
rfoot -16.053 -11.7283
rtoes -4.1505
lfemur -25.5463 -3.28817 -16.5609
ltibia 24.7287
lfoot 4.65693 1.76253
ltoes 4.93929
202
root 1.1404 17.308 0.589706 -0.483111 -3.88588 -2.28077
lowerback 3.37554 2.1488 1.09577
upperback -0.0948193 2.949 1.98741
thorax -2.03777 1.47046 1.27525
lowerneck -16.2059 -3.11717 -9.66414
upperneck 24.3692 -2.75352 3.9649
head 10.7291 -1.67868 2.66891
rclavicle 2.09407e-014 2.5842e-014
rhumerus -25.8909 -8.27905 -81.1546
rradius 40.2168
rwrist 1.48606
rhand -19.7116 14.432
rfingers 7.12502
rthumb 6.61819 -15.4446
lclavicle 2.09407e-014 2.5842e-014
lhumerus -37.1408 21.2586 78.7485
lradius 19.8894
lwrist -15.5343
lhand -13.5298 26.7197
lfingers 7.12502
lthumb 12.5825 56.3208
rfemur 7.56462 7.64566 29.1822
rtibia 22.7983
rfoot -16.2701 -11.5963
rtoes -5.12583
lfemur -25.3081 -2.43624 -17.4949
ltibia 24.679
lfoot 4.52626 1.35209
ltoes 1.05309
203
root 1.14895 17.3251 0.709482 -0.32625 -3.95081 -1.97492
lowerback 3.26654 2.12725 0.718435
upperback -0.323226 2.90618 1.87457
thorax -2.2235 1.45284 1.37141
lowerneck -16.2753 -2.98514 -9.56524
upperneck 24.9553 -2.62342 4.06793
head 10.9482 -1.60858 2.71736
rclavicle -8.80088e-015 -2.38542e-015
rhumerus -26.0784 -8.63515 -81.2096
rradius 39.5204
rwrist 1.74953
rhand -19.2694 14.5217
rfingers 7.12502
rthumb 7.04506 -15.341
lclavicle -8.80088e-015 -2.38542e-015
lhumerus -37.5953 20.9417 78.7126
lradius 20.4675
lwrist -14.9448
lhand -13.1692 27.854
lfingers 7.12502
lthumb 12.9301 57.4334
rfemur 7.25184 7.70703 28.8345
rtibia 23.7753
rfoot -16.2282 -11.5723
rtoes -7.8763
lfemur -24.9925 -1.85719 -18.0676
ltibia 24.6182
lfoot 4.19049 0.995262
ltoes -0.0447747
